<svg id="visual" viewBox="0 0 900 600" width="900" height="600" xmlns="http://www.w3.org/2000/svg" xmlns:xlink="http://www.w3.org/1999/xlink" version="1.1"><rect x="0" y="0" width="900" height="600" fill="#001122"></rect><defs><linearGradient id="grad1_0" x1="33.3%" y1="100%" x2="100%" y2="0%"><stop offset="20%" stop-color="#001122" stop-opacity="1"></stop><stop offset="80%" stop-color="#001122" stop-opacity="1"></stop></linearGradient></defs><defs><linearGradient id="grad2_0" x1="0%" y1="100%" x2="66.7%" y2="0%"><stop offset="20%" stop-color="#001122" stop-opacity="1"></stop><stop offset="80%" stop-color="#001122" stop-opacity="1"></stop></linearGradient></defs><g transform="translate(900, 600)"><path d="M-243.4 0C-223.2 -34.4 -203.1 -68.7 -185.3 -107C-167.6 -145.3 -152.2 -187.4 -121.7 -210.8C-91.2 -234.1 -45.6 -238.8 0 -243.4L0 0Z" fill="#FCAF3C"></path></g><g transform="translate(0, 0)"><path d="M243.4 0C214.9 29.6 186.5 59.1 169.7 98C153 136.9 148 185 121.7 210.8C95.4 236.5 47.7 240 0 243.4L0 0Z" fill="#FCAF3C"></path></g></svg>